<?xml version="1.0" encoding="utf-8"?>
<!-- Generator: Adobe Illustrator 16.0.0, SVG Export Plug-In . SVG Version: 6.00 Build 0)  -->
<!DOCTYPE svg PUBLIC "-//W3C//DTD SVG 1.1//EN" "http://www.w3.org/Graphics/SVG/1.1/DTD/svg11.dtd">
<svg version="1.1" id="Layer_1" xmlns="http://www.w3.org/2000/svg" xmlns:xlink="http://www.w3.org/1999/xlink" x="0px" y="0px"
	 width="484.161px" height="322.14px" viewBox="0 0 484.161 322.14" enable-background="new 0 0 484.161 322.14"
	 xml:space="preserve">
<path fill="#006576" d="M24.726,272.282c0,1.882-0.483,3.576-1.455,5.074c-0.965,1.499-2.385,2.673-4.254,3.521
	s-4.083,1.273-6.643,1.273c-3.07,0-5.605-0.578-7.597-1.738c-1.417-0.835-2.566-1.947-3.449-3.344
	C0.445,275.677,0,274.318,0,273.004c0-0.764,0.267-1.413,0.797-1.961c0.531-0.548,1.208-0.818,2.026-0.818
	c0.667,0,1.229,0.213,1.688,0.641c0.462,0.424,0.852,1.051,1.177,1.889c0.397,0.985,0.828,1.813,1.287,2.481
	c0.458,0.664,1.105,1.211,1.94,1.643c0.835,0.435,1.93,0.646,3.292,0.646c1.865,0,3.385-0.435,4.552-1.304
	c1.167-0.873,1.749-1.954,1.749-3.258c0-1.033-0.312-1.872-0.945-2.516c-0.629-0.646-1.444-1.136-2.44-1.472
	c-0.996-0.342-2.331-0.701-4-1.088c-2.234-0.521-4.106-1.136-5.612-1.831c-1.509-0.701-2.704-1.659-3.59-2.867
	c-0.883-1.208-1.324-2.714-1.324-4.511c0-1.711,0.465-3.23,1.403-4.562c0.931-1.328,2.283-2.352,4.048-3.066
	c1.773-0.716,3.854-1.071,6.242-1.071c1.91,0,3.562,0.236,4.956,0.708c1.396,0.476,2.553,1.105,3.47,1.89
	c0.92,0.787,1.591,1.608,2.019,2.474c0.425,0.862,0.633,1.704,0.633,2.525c0,0.75-0.263,1.424-0.794,2.022
	c-0.53,0.606-1.194,0.907-1.985,0.907c-0.722,0-1.273-0.185-1.646-0.541c-0.376-0.366-0.784-0.954-1.222-1.772
	c-0.561-1.174-1.242-2.091-2.036-2.748c-0.791-0.657-2.067-0.988-3.819-0.988c-1.625,0-2.94,0.358-3.939,1.074
	c-0.992,0.712-1.496,1.57-1.496,2.573c0,0.626,0.171,1.164,0.513,1.615c0.339,0.452,0.805,0.842,1.396,1.167
	c0.596,0.329,1.198,0.582,1.807,0.767c0.609,0.182,1.615,0.455,3.011,0.805c1.756,0.41,3.344,0.862,4.767,1.358
	c1.424,0.496,2.632,1.099,3.627,1.807c0.996,0.705,1.776,1.602,2.338,2.684C24.445,269.383,24.726,270.715,24.726,272.282"/>
<path fill="#006576" d="M34.509,268.504h10.506c-0.144-1.979-0.674-3.46-1.605-4.442c-0.924-0.985-2.143-1.475-3.659-1.475
	c-1.444,0-2.628,0.496-3.556,1.495C35.272,265.078,34.708,266.553,34.509,268.504 M45.844,271.796H34.509
	c0.017,1.317,0.281,2.478,0.797,3.48c0.514,1.006,1.201,1.763,2.061,2.269c0.855,0.514,1.796,0.767,2.83,0.767
	c0.694,0,1.324-0.082,1.899-0.243c0.575-0.164,1.129-0.417,1.666-0.763c0.538-0.35,1.034-0.719,1.485-1.116
	c0.455-0.396,1.041-0.934,1.763-1.611c0.298-0.257,0.722-0.387,1.273-0.387c0.595,0,1.075,0.164,1.444,0.493
	c0.366,0.324,0.551,0.783,0.551,1.379c0,0.523-0.206,1.133-0.616,1.834c-0.411,0.698-1.03,1.372-1.858,2.02
	c-0.825,0.643-1.865,1.177-3.118,1.598c-1.249,0.425-2.69,0.637-4.315,0.637c-3.727,0-6.619-1.058-8.682-3.183
	c-2.067-2.125-3.101-5-3.101-8.638c0-1.711,0.257-3.303,0.763-4.767c0.513-1.462,1.256-2.718,2.228-3.765
	c0.979-1.048,2.18-1.849,3.61-2.409c1.431-0.558,3.015-0.839,4.753-0.839c2.262,0,4.203,0.476,5.828,1.434
	c1.619,0.955,2.83,2.19,3.634,3.703c0.808,1.517,1.215,3.057,1.215,4.627c0,1.458-0.421,2.402-1.256,2.834
	C48.53,271.577,47.356,271.796,45.844,271.796"/>
<path fill="#006576" d="M67.492,279.756l-4.202-6.181l-4.312,6.181c-0.62,0.862-1.15,1.479-1.581,1.845
	c-0.428,0.369-0.975,0.551-1.643,0.551c-0.736,0-1.362-0.229-1.879-0.688c-0.513-0.462-0.773-0.986-0.773-1.585
	c0-0.605,0.397-1.479,1.188-2.604l5.243-7.519l-4.647-6.259c-0.808-1.033-1.211-1.931-1.211-2.693c0-0.596,0.243-1.112,0.722-1.55
	c0.483-0.438,1.109-0.657,1.889-0.657c0.678,0,1.243,0.188,1.687,0.574c0.445,0.377,0.965,0.979,1.561,1.801l3.758,5.137
	l3.651-5.137c0.606-0.849,1.133-1.455,1.581-1.824c0.445-0.37,0.996-0.551,1.663-0.551c0.763,0,1.4,0.212,1.899,0.646
	c0.5,0.432,0.753,0.951,0.753,1.561c0,0.438-0.099,0.859-0.308,1.26c-0.202,0.403-0.517,0.886-0.941,1.434l-4.647,6.259l5.243,7.519
	c0.814,1.171,1.229,2.057,1.229,2.652c0,0.605-0.257,1.13-0.764,1.567c-0.513,0.441-1.139,0.657-1.889,0.657
	c-0.667,0-1.229-0.188-1.69-0.571C68.611,281.196,68.084,280.588,67.492,279.756"/>
<path fill="#006576" d="M92.618,278.883v-0.742c-0.695,0.876-1.424,1.611-2.187,2.207c-0.764,0.596-1.599,1.037-2.502,1.324
	c-0.907,0.291-1.94,0.438-3.101,0.438c-1.399,0-2.655-0.291-3.768-0.869c-1.112-0.582-1.968-1.379-2.577-2.399
	c-0.722-1.231-1.081-3.001-1.081-5.304v-11.485c0-1.16,0.26-2.025,0.783-2.598c0.524-0.574,1.219-0.858,2.081-0.858
	c0.879,0,1.584,0.287,2.122,0.869c0.538,0.578,0.808,1.44,0.808,2.587v9.274c0,1.349,0.11,2.474,0.339,3.388
	c0.229,0.914,0.633,1.626,1.218,2.143c0.589,0.517,1.386,0.776,2.392,0.776c0.972,0,1.896-0.291,2.758-0.872
	c0.859-0.579,1.492-1.339,1.889-2.272c0.325-0.821,0.486-2.614,0.486-5.391v-7.046c0-1.146,0.271-2.009,0.804-2.587
	c0.541-0.582,1.242-0.869,2.105-0.869c0.862,0,1.554,0.284,2.077,0.858c0.527,0.572,0.787,1.438,0.787,2.598v16.789
	c0,1.103-0.25,1.931-0.753,2.481c-0.503,0.555-1.153,0.832-1.944,0.832s-1.448-0.288-1.964-0.863
	C92.878,280.721,92.618,279.917,92.618,278.883"/>
<path fill="#006576" d="M118.086,270.502c-0.849,0.312-2.084,0.637-3.703,0.982c-1.619,0.349-2.741,0.605-3.364,0.77
	c-0.62,0.161-1.219,0.479-1.783,0.952c-0.564,0.476-0.849,1.136-0.849,1.984c0,0.88,0.332,1.626,0.999,2.238
	c0.664,0.616,1.533,0.928,2.608,0.928c1.146,0,2.208-0.254,3.172-0.757c0.972-0.503,1.684-1.149,2.136-1.943
	c0.52-0.876,0.783-2.317,0.783-4.329V270.502z M118.469,278.883c-1.403,1.092-2.755,1.906-4.065,2.454
	c-1.307,0.544-2.775,0.818-4.401,0.818c-1.489,0-2.792-0.295-3.918-0.887c-1.126-0.585-1.992-1.379-2.601-2.386
	c-0.605-1.002-0.91-2.091-0.91-3.268c0-1.585,0.5-2.933,1.506-4.052c1.003-1.119,2.385-1.869,4.141-2.249
	c0.366-0.089,1.277-0.277,2.734-0.574c1.458-0.298,2.707-0.568,3.748-0.818s2.169-0.548,3.384-0.9
	c-0.068-1.529-0.376-2.648-0.92-3.363c-0.547-0.716-1.677-1.071-3.388-1.071c-1.468,0-2.577,0.205-3.319,0.612
	c-0.743,0.414-1.383,1.026-1.91,1.848c-0.534,0.821-0.907,1.362-1.125,1.626c-0.219,0.26-0.691,0.39-1.414,0.39
	c-0.65,0-1.211-0.208-1.687-0.626c-0.473-0.417-0.712-0.951-0.712-1.602c0-1.02,0.359-2.012,1.081-2.971
	c0.722-0.961,1.848-1.752,3.378-2.378c1.526-0.623,3.429-0.935,5.708-0.935c2.546,0,4.552,0.302,6.01,0.903
	c1.454,0.6,2.484,1.554,3.087,2.854c0.599,1.304,0.9,3.025,0.9,5.178c0,1.358-0.003,2.509-0.01,3.46
	c-0.007,0.948-0.017,2.005-0.031,3.162c0,1.088,0.178,2.225,0.541,3.408c0.359,1.181,0.541,1.938,0.541,2.279
	c0,0.592-0.28,1.136-0.835,1.626c-0.561,0.485-1.198,0.732-1.906,0.732c-0.592,0-1.181-0.281-1.759-0.839
	C119.732,280.755,119.12,279.944,118.469,278.883"/>
<path fill="#006576" d="M129.653,278.63v-25.129c0-1.16,0.26-2.036,0.773-2.632c0.517-0.592,1.215-0.89,2.094-0.89
	c0.876,0,1.581,0.294,2.118,0.879c0.538,0.589,0.808,1.469,0.808,2.643v25.129c0,1.174-0.27,2.054-0.818,2.642
	c-0.544,0.586-1.246,0.88-2.108,0.88c-0.852,0-1.54-0.305-2.074-0.91C129.92,280.632,129.653,279.763,129.653,278.63"/>
<path fill="#006576" d="M159.046,253.799v8.914h13.603v-8.914c0-1.273,0.288-2.229,0.859-2.868c0.575-0.633,1.328-0.951,2.262-0.951
	c0.948,0,1.715,0.314,2.3,0.941c0.588,0.633,0.883,1.588,0.883,2.878v24.513c0,1.287-0.298,2.248-0.893,2.889
	c-0.592,0.633-1.355,0.951-2.29,0.951c-0.948,0-1.704-0.321-2.272-0.965c-0.564-0.644-0.849-1.602-0.849-2.875v-10.465h-13.603
	v10.465c0,1.287-0.298,2.248-0.89,2.889c-0.595,0.633-1.358,0.951-2.292,0.951c-0.948,0-1.705-0.321-2.269-0.965
	c-0.568-0.644-0.852-1.602-0.852-2.875v-24.513c0-1.273,0.281-2.229,0.842-2.868c0.554-0.633,1.317-0.951,2.279-0.951
	c0.948,0,1.714,0.314,2.303,0.941C158.752,251.554,159.046,252.509,159.046,253.799"/>
<path fill="#006576" d="M190.161,268.504h10.506c-0.144-1.979-0.678-3.46-1.605-4.442c-0.927-0.985-2.146-1.475-3.658-1.475
	c-1.444,0-2.628,0.496-3.559,1.495C190.92,265.078,190.359,266.553,190.161,268.504 M201.492,271.796h-11.331
	c0.014,1.317,0.28,2.478,0.794,3.48c0.517,1.006,1.201,1.763,2.057,2.269c0.859,0.514,1.8,0.767,2.837,0.767
	c0.691,0,1.324-0.082,1.899-0.243c0.571-0.164,1.126-0.417,1.663-0.763c0.541-0.35,1.033-0.719,1.485-1.116
	c0.455-0.396,1.04-0.934,1.762-1.611c0.298-0.257,0.722-0.387,1.273-0.387c0.596,0,1.075,0.164,1.444,0.493
	c0.366,0.324,0.554,0.783,0.554,1.379c0,0.523-0.208,1.133-0.619,1.834c-0.407,0.698-1.03,1.372-1.855,2.02
	c-0.828,0.643-1.869,1.177-3.121,1.598c-1.249,0.425-2.69,0.637-4.315,0.637c-3.727,0-6.618-1.058-8.682-3.183
	c-2.067-2.125-3.1-5-3.1-8.638c0-1.711,0.256-3.303,0.763-4.767c0.514-1.462,1.256-2.718,2.231-3.765
	c0.976-1.048,2.177-1.849,3.607-2.409c1.431-0.558,3.015-0.839,4.753-0.839c2.262,0,4.206,0.476,5.828,1.434
	c1.619,0.955,2.83,2.19,3.638,3.703c0.804,1.517,1.211,3.057,1.211,4.627c0,1.458-0.421,2.402-1.256,2.834
	C204.182,271.577,203.008,271.796,201.492,271.796"/>
<path fill="#006576" d="M225.413,270.502c-0.849,0.312-2.088,0.637-3.707,0.982c-1.618,0.349-2.74,0.605-3.363,0.77
	c-0.619,0.161-1.215,0.479-1.783,0.952c-0.564,0.476-0.849,1.136-0.849,1.984c0,0.88,0.332,1.626,0.999,2.238
	c0.668,0.616,1.537,0.928,2.611,0.928c1.146,0,2.204-0.254,3.172-0.757c0.969-0.503,1.681-1.149,2.133-1.943
	c0.523-0.876,0.787-2.317,0.787-4.329V270.502z M225.793,278.883c-1.399,1.092-2.755,1.906-4.065,2.454
	c-1.308,0.544-2.775,0.818-4.401,0.818c-1.488,0-2.792-0.295-3.918-0.887c-1.123-0.585-1.989-1.379-2.598-2.386
	c-0.609-1.002-0.914-2.091-0.914-3.268c0-1.585,0.503-2.933,1.509-4.052c1.002-1.119,2.382-1.869,4.137-2.249
	c0.37-0.089,1.28-0.277,2.738-0.574c1.458-0.298,2.703-0.568,3.743-0.818c1.044-0.25,2.17-0.548,3.389-0.9
	c-0.072-1.529-0.38-2.648-0.924-3.363c-0.545-0.716-1.674-1.071-3.389-1.071c-1.468,0-2.576,0.205-3.319,0.612
	c-0.742,0.414-1.379,1.026-1.909,1.848c-0.531,0.821-0.907,1.362-1.123,1.626c-0.223,0.26-0.691,0.39-1.413,0.39
	c-0.653,0-1.211-0.208-1.69-0.626c-0.473-0.417-0.712-0.951-0.712-1.602c0-1.02,0.363-2.012,1.085-2.971
	c0.722-0.961,1.848-1.752,3.374-2.378c1.526-0.623,3.433-0.935,5.708-0.935c2.55,0,4.552,0.302,6.01,0.903
	c1.454,0.6,2.484,1.554,3.087,2.854c0.599,1.304,0.903,3.025,0.903,5.178c0,1.358-0.004,2.509-0.011,3.46
	c-0.01,0.948-0.021,2.005-0.034,3.162c0,1.088,0.179,2.225,0.541,3.408c0.359,1.181,0.544,1.938,0.544,2.279
	c0,0.592-0.28,1.136-0.838,1.626c-0.562,0.485-1.194,0.732-1.903,0.732c-0.592,0-1.181-0.281-1.759-0.839
	C227.059,280.755,226.446,279.944,225.793,278.883"/>
<path fill="#006576" d="M236.977,278.63v-25.129c0-1.16,0.26-2.036,0.776-2.632c0.514-0.592,1.212-0.89,2.092-0.89
	c0.876,0,1.584,0.294,2.118,0.879c0.54,0.589,0.811,1.469,0.811,2.643v25.129c0,1.174-0.273,2.054-0.821,2.642
	c-0.541,0.586-1.246,0.88-2.107,0.88c-0.853,0-1.541-0.305-2.071-0.91C237.243,280.632,236.977,279.763,236.977,278.63"/>
<path fill="#006576" d="M249.074,259.103h0.64v-3.477c0-0.938,0.023-1.67,0.072-2.197c0.051-0.53,0.188-0.989,0.414-1.372
	c0.226-0.394,0.551-0.719,0.979-0.962c0.424-0.25,0.896-0.373,1.417-0.373c0.739,0,1.402,0.274,1.995,0.828
	c0.396,0.366,0.649,0.814,0.756,1.349c0.106,0.53,0.157,1.283,0.157,2.259v3.945h2.125c0.821,0,1.444,0.199,1.876,0.582
	c0.435,0.391,0.646,0.894,0.646,1.503c0,0.772-0.305,1.32-0.92,1.632c-0.616,0.308-1.496,0.466-2.643,0.466h-1.085v10.653
	c0,0.906,0.034,1.602,0.096,2.091s0.236,0.883,0.514,1.19c0.271,0.305,0.722,0.455,1.345,0.455c0.339,0,0.798-0.062,1.379-0.181
	c0.579-0.117,1.034-0.182,1.362-0.182c0.466,0,0.887,0.188,1.26,0.562c0.376,0.376,0.562,0.842,0.562,1.393
	c0,0.935-0.507,1.649-1.527,2.143c-1.016,0.496-2.48,0.742-4.394,0.742c-1.811,0-3.183-0.305-4.12-0.91
	c-0.931-0.609-1.54-1.451-1.831-2.525c-0.291-1.078-0.435-2.513-0.435-4.312v-11.118h-0.764c-0.838,0-1.475-0.199-1.912-0.596
	c-0.441-0.397-0.657-0.896-0.657-1.502c0-0.609,0.226-1.112,0.688-1.503C247.53,259.302,248.198,259.103,249.074,259.103"/>
<path fill="#006576" d="M269.809,253.501v8.597c0.736-0.849,1.455-1.523,2.156-2.016c0.701-0.497,1.472-0.869,2.323-1.119
	c0.85-0.243,1.76-0.366,2.738-0.366c1.472,0,2.775,0.312,3.915,0.931c1.136,0.626,2.032,1.529,2.683,2.717
	c0.414,0.695,0.688,1.469,0.832,2.327c0.141,0.855,0.209,1.838,0.209,2.957v11.102c0,1.16-0.264,2.036-0.794,2.632
	c-0.531,0.592-1.235,0.89-2.115,0.89c-1.909,0-2.864-1.174-2.864-3.521v-9.784c0-1.854-0.274-3.278-0.825-4.274
	c-0.554-0.999-1.602-1.495-3.145-1.495c-1.03,0-1.961,0.291-2.789,0.88c-0.825,0.588-1.448,1.389-1.858,2.405
	c-0.312,0.866-0.466,2.402-0.466,4.606v7.662c0,1.146-0.257,2.02-0.773,2.621c-0.517,0.6-1.235,0.9-2.155,0.9
	c-1.91,0-2.861-1.174-2.861-3.521v-25.129c0-1.174,0.246-2.054,0.753-2.643c0.5-0.585,1.204-0.879,2.108-0.879
	c0.92,0,1.639,0.294,2.155,0.89S269.809,252.341,269.809,253.501"/>
<path fill="#006576" d="M325.307,272.282c0,1.882-0.482,3.576-1.454,5.074c-0.966,1.499-2.386,2.673-4.254,3.521
	c-1.869,0.849-4.083,1.273-6.643,1.273c-3.07,0-5.603-0.578-7.598-1.738c-1.413-0.835-2.566-1.947-3.449-3.344
	c-0.883-1.393-1.328-2.751-1.328-4.065c0-0.764,0.271-1.413,0.798-1.961c0.53-0.548,1.208-0.818,2.025-0.818
	c0.668,0,1.229,0.213,1.69,0.641c0.459,0.424,0.853,1.051,1.178,1.889c0.396,0.985,0.824,1.813,1.283,2.481
	c0.459,0.664,1.105,1.211,1.94,1.643c0.839,0.435,1.93,0.646,3.289,0.646c1.868,0,3.388-0.435,4.555-1.304
	c1.167-0.873,1.752-1.954,1.752-3.258c0-1.033-0.314-1.872-0.948-2.516c-0.629-0.646-1.443-1.136-2.437-1.472
	c-0.999-0.342-2.334-0.701-4.004-1.088c-2.234-0.521-4.106-1.136-5.612-1.831c-1.509-0.701-2.703-1.659-3.586-2.867
	c-0.887-1.208-1.328-2.714-1.328-4.511c0-1.711,0.469-3.23,1.403-4.562c0.931-1.328,2.282-2.352,4.052-3.066
	c1.766-0.716,3.85-1.071,6.238-1.071c1.91,0,3.562,0.236,4.955,0.708c1.396,0.476,2.55,1.105,3.471,1.89
	c0.92,0.787,1.595,1.608,2.019,2.474c0.421,0.862,0.634,1.704,0.634,2.525c0,0.75-0.264,1.424-0.794,2.022
	c-0.53,0.606-1.194,0.907-1.985,0.907c-0.722,0-1.27-0.185-1.643-0.541c-0.376-0.366-0.783-0.954-1.222-1.772
	c-0.568-1.174-1.245-2.091-2.04-2.748c-0.79-0.657-2.063-0.988-3.818-0.988c-1.626,0-2.939,0.358-3.936,1.074
	c-1,0.712-1.496,1.57-1.496,2.573c0,0.626,0.168,1.164,0.507,1.615c0.342,0.452,0.808,0.842,1.403,1.167
	c0.592,0.329,1.194,0.582,1.803,0.767c0.609,0.182,1.612,0.455,3.012,0.805c1.756,0.41,3.344,0.862,4.768,1.358
	c1.42,0.496,2.632,1.099,3.631,1.807c0.992,0.705,1.772,1.602,2.334,2.684C325.026,269.383,325.307,270.715,325.307,272.282"/>
<path fill="#006576" d="M335.919,253.501v8.597c0.735-0.849,1.454-1.523,2.156-2.016c0.701-0.497,1.471-0.869,2.323-1.119
	c0.849-0.243,1.759-0.366,2.737-0.366c1.472,0,2.775,0.312,3.912,0.931c1.14,0.626,2.036,1.529,2.687,2.717
	c0.414,0.695,0.688,1.469,0.831,2.327c0.137,0.855,0.209,1.838,0.209,2.957v11.102c0,1.16-0.264,2.036-0.797,2.632
	c-0.527,0.592-1.232,0.89-2.112,0.89c-1.909,0-2.864-1.174-2.864-3.521v-9.784c0-1.854-0.273-3.278-0.824-4.274
	c-0.555-0.999-1.602-1.495-3.146-1.495c-1.03,0-1.961,0.291-2.789,0.88c-0.828,0.588-1.447,1.389-1.858,2.405
	c-0.311,0.866-0.465,2.402-0.465,4.606v7.662c0,1.146-0.26,2.02-0.773,2.621c-0.521,0.6-1.235,0.9-2.156,0.9
	c-1.909,0-2.861-1.174-2.861-3.521v-25.129c0-1.174,0.247-2.054,0.754-2.643c0.499-0.585,1.204-0.879,2.107-0.879
	c0.921,0,1.636,0.294,2.156,0.89C335.659,251.465,335.919,252.341,335.919,253.501"/>
<path fill="#006576" d="M361.346,268.504h10.506c-0.14-1.979-0.678-3.46-1.602-4.442c-0.931-0.985-2.149-1.475-3.665-1.475
	c-1.44,0-2.628,0.496-3.553,1.495C362.105,265.078,361.544,266.553,361.346,268.504 M372.677,271.796h-11.331
	c0.014,1.317,0.277,2.478,0.794,3.48c0.521,1.006,1.201,1.763,2.061,2.269c0.855,0.514,1.796,0.767,2.833,0.767
	c0.691,0,1.328-0.082,1.896-0.243c0.575-0.164,1.13-0.417,1.671-0.763c0.537-0.35,1.033-0.719,1.481-1.116
	c0.455-0.396,1.04-0.934,1.763-1.611c0.298-0.257,0.722-0.387,1.276-0.387c0.592,0,1.074,0.164,1.44,0.493
	c0.366,0.324,0.555,0.783,0.555,1.379c0,0.523-0.209,1.133-0.616,1.834c-0.41,0.698-1.03,1.372-1.858,2.02
	c-0.828,0.643-1.865,1.177-3.121,1.598c-1.249,0.425-2.689,0.637-4.315,0.637c-3.723,0-6.618-1.058-8.682-3.183
	c-2.067-2.125-3.101-5-3.101-8.638c0-1.711,0.257-3.303,0.767-4.767c0.51-1.462,1.252-2.718,2.228-3.765
	c0.976-1.048,2.177-1.849,3.607-2.409c1.431-0.558,3.015-0.839,4.757-0.839c2.262,0,4.206,0.476,5.824,1.434
	c1.619,0.955,2.83,2.19,3.642,3.703c0.804,1.517,1.208,3.057,1.208,4.627c0,1.458-0.418,2.402-1.256,2.834
	C375.366,271.577,374.192,271.796,372.677,271.796"/>
<path fill="#006576" d="M381.868,259.103h1.38v-1.738c0-1.811,0.229-3.251,0.688-4.318c0.462-1.068,1.239-1.849,2.337-2.334
	c1.096-0.489,2.598-0.732,4.508-0.732c3.381,0,5.071,0.828,5.071,2.48c0,0.541-0.178,1-0.53,1.38
	c-0.353,0.383-0.767,0.571-1.253,0.571c-0.222,0-0.612-0.041-1.167-0.127c-0.551-0.082-1.016-0.123-1.399-0.123
	c-1.047,0-1.718,0.305-2.016,0.921s-0.445,1.495-0.445,2.642v1.379h1.421c2.207,0,3.312,0.668,3.312,1.995
	c0,0.952-0.295,1.551-0.883,1.808c-0.586,0.25-1.393,0.38-2.43,0.38h-1.421v15.345c0,1.146-0.273,2.02-0.817,2.621
	c-0.548,0.6-1.246,0.9-2.111,0.9c-0.821,0-1.506-0.301-2.047-0.9c-0.548-0.602-0.817-1.475-0.817-2.621v-15.345h-1.595
	c-0.863,0-1.523-0.192-1.992-0.582c-0.469-0.394-0.698-0.896-0.698-1.516C378.963,259.798,379.928,259.103,381.868,259.103"/>
<path fill="#006576" d="M397.953,259.103h1.382v-1.738c0-1.811,0.227-3.251,0.685-4.318c0.466-1.068,1.242-1.849,2.338-2.334
	c1.099-0.489,2.601-0.732,4.51-0.732c3.378,0,5.072,0.828,5.072,2.48c0,0.541-0.178,1-0.53,1.38
	c-0.353,0.383-0.771,0.571-1.253,0.571c-0.226,0-0.612-0.041-1.167-0.127c-0.551-0.082-1.017-0.123-1.399-0.123
	c-1.048,0-1.722,0.305-2.02,0.921c-0.294,0.616-0.444,1.495-0.444,2.642v1.379h1.424c2.207,0,3.312,0.668,3.312,1.995
	c0,0.952-0.295,1.551-0.883,1.808c-0.586,0.25-1.396,0.38-2.43,0.38h-1.424v15.345c0,1.146-0.271,2.02-0.814,2.621
	c-0.545,0.6-1.249,0.9-2.111,0.9c-0.822,0-1.506-0.301-2.051-0.9c-0.544-0.602-0.814-1.475-0.814-2.621v-15.345h-1.595
	c-0.862,0-1.526-0.192-1.995-0.582c-0.465-0.394-0.697-0.896-0.697-1.516C395.048,259.798,396.016,259.103,397.953,259.103"/>
<path fill="#006576" d="M419.218,261.882v16.748c0,1.16-0.273,2.036-0.828,2.632c-0.551,0.596-1.249,0.89-2.098,0.89
	c-0.852,0-1.54-0.305-2.07-0.91c-0.53-0.609-0.797-1.479-0.797-2.611v-16.577c0-1.146,0.267-2.005,0.797-2.587
	c0.53-0.578,1.219-0.869,2.07-0.869c0.849,0,1.547,0.291,2.098,0.869C418.944,260.048,419.218,260.852,419.218,261.882
	 M416.354,255.899c-0.804,0-1.495-0.249-2.066-0.742c-0.575-0.496-0.862-1.194-0.862-2.102c0-0.821,0.294-1.499,0.883-2.025
	c0.585-0.53,1.27-0.798,2.046-0.798c0.75,0,1.417,0.243,1.995,0.723c0.582,0.482,0.869,1.181,0.869,2.101
	c0,0.894-0.28,1.592-0.848,2.091C417.805,255.646,417.134,255.899,416.354,255.899"/>
<path fill="#006576" d="M430.043,268.504h10.506c-0.141-1.979-0.678-3.46-1.602-4.442c-0.928-0.985-2.149-1.475-3.662-1.475
	c-1.444,0-2.628,0.496-3.552,1.495C430.803,265.078,430.241,266.553,430.043,268.504 M441.377,271.796h-11.334
	c0.014,1.317,0.28,2.478,0.794,3.48c0.52,1.006,1.204,1.763,2.063,2.269c0.852,0.514,1.797,0.767,2.83,0.767
	c0.694,0,1.327-0.082,1.899-0.243c0.574-0.164,1.129-0.417,1.666-0.763c0.537-0.35,1.034-0.719,1.485-1.116
	c0.455-0.396,1.044-0.934,1.763-1.611c0.298-0.257,0.722-0.387,1.273-0.387c0.592,0,1.078,0.164,1.44,0.493
	c0.369,0.324,0.555,0.783,0.555,1.379c0,0.523-0.206,1.133-0.613,1.834c-0.414,0.698-1.03,1.372-1.861,2.02
	c-0.828,0.643-1.865,1.177-3.118,1.598c-1.252,0.425-2.692,0.637-4.318,0.637c-3.72,0-6.615-1.058-8.679-3.183
	c-2.067-2.125-3.101-5-3.101-8.638c0-1.711,0.254-3.303,0.767-4.767c0.507-1.462,1.249-2.718,2.225-3.765
	c0.979-1.048,2.18-1.849,3.61-2.409c1.427-0.558,3.012-0.839,4.754-0.839c2.265,0,4.205,0.476,5.824,1.434
	c1.619,0.955,2.834,2.19,3.641,3.703c0.809,1.517,1.209,3.057,1.209,4.627c0,1.458-0.414,2.402-1.253,2.834
	C444.063,271.577,442.89,271.796,441.377,271.796"/>
<path fill="#006576" d="M451.031,278.63v-25.129c0-1.16,0.26-2.036,0.776-2.632c0.517-0.592,1.212-0.89,2.091-0.89
	c0.876,0,1.585,0.294,2.122,0.879c0.537,0.589,0.805,1.469,0.805,2.643v25.129c0,1.174-0.271,2.054-0.818,2.642
	c-0.541,0.586-1.246,0.88-2.108,0.88c-0.852,0-1.54-0.305-2.07-0.91C451.298,280.632,451.031,279.763,451.031,278.63"/>
<path fill="#006576" d="M467.29,270.328c0,1.574,0.246,2.908,0.732,4.014c0.489,1.105,1.156,1.934,2.005,2.495
	c0.849,0.558,1.776,0.838,2.779,0.838c1.02,0,1.95-0.267,2.792-0.797c0.842-0.527,1.513-1.342,2.016-2.437
	c0.5-1.099,0.753-2.468,0.753-4.113c0-1.54-0.253-2.865-0.753-3.977c-0.503-1.109-1.181-1.958-2.036-2.547
	c-0.858-0.585-1.793-0.879-2.812-0.879c-1.062,0-2.009,0.301-2.845,0.899c-0.838,0.603-1.481,1.465-1.939,2.591
	C467.519,267.539,467.29,268.846,467.29,270.328 M478.686,278.842v-0.571c-0.776,0.89-1.543,1.615-2.3,2.173
	c-0.76,0.562-1.577,0.982-2.464,1.273c-0.883,0.287-1.852,0.435-2.896,0.435c-1.389,0-2.669-0.294-3.856-0.88
	c-1.181-0.588-2.2-1.423-3.066-2.515c-0.858-1.089-1.516-2.368-1.961-3.84c-0.444-1.472-0.671-3.063-0.671-4.777
	c0-3.621,0.887-6.444,2.656-8.467c1.77-2.025,4.096-3.039,6.98-3.039c1.671,0,3.077,0.291,4.224,0.862
	c1.146,0.575,2.266,1.455,3.354,2.643v-8.553c0-1.188,0.239-2.084,0.712-2.696c0.473-0.605,1.15-0.91,2.026-0.91
	c0.879,0,1.554,0.28,2.029,0.838c0.472,0.562,0.708,1.383,0.708,2.475v25.55c0,1.103-0.253,1.931-0.76,2.481
	c-0.514,0.555-1.17,0.828-1.978,0.828c-0.791,0-1.448-0.287-1.961-0.855C478.946,280.721,478.686,279.903,478.686,278.842"/>
<path fill="#707173" d="M52.572,316.746v-18.35h3.655l4.343,12.99c0.404,1.212,0.695,2.115,0.876,2.714
	c0.212-0.664,0.538-1.646,0.979-2.939l4.394-12.765h3.265v18.35h-2.341v-15.362l-5.332,15.362h-2.19l-5.308-15.619v15.619H52.572z"
	/>
<path fill="#707173" d="M75.415,308.82h7.422c-0.099-1.119-0.383-1.957-0.852-2.512c-0.719-0.869-1.646-1.304-2.789-1.304
	c-1.037,0-1.906,0.346-2.611,1.037C75.88,306.736,75.49,307.66,75.415,308.82 M82.813,312.465l2.327,0.288
	c-0.366,1.358-1.047,2.412-2.04,3.162c-0.993,0.756-2.262,1.129-3.806,1.129c-1.944,0-3.484-0.599-4.626-1.797
	c-1.14-1.194-1.708-2.878-1.708-5.037c0-2.234,0.575-3.974,1.729-5.205c1.15-1.235,2.646-1.852,4.483-1.852
	c1.776,0,3.227,0.603,4.353,1.811c1.129,1.215,1.69,2.912,1.69,5.109c0,0.13-0.007,0.335-0.014,0.603h-9.914
	c0.086,1.461,0.5,2.576,1.242,3.354c0.743,0.776,1.667,1.167,2.779,1.167c0.824,0,1.529-0.223,2.111-0.654
	C82.006,314.107,82.472,313.413,82.813,312.465"/>
<path fill="#707173" d="M89.672,308.82h7.422c-0.099-1.119-0.387-1.957-0.852-2.512c-0.719-0.869-1.646-1.304-2.789-1.304
	c-1.037,0-1.906,0.346-2.611,1.037C90.137,306.736,89.747,307.66,89.672,308.82 M97.07,312.465l2.327,0.288
	c-0.366,1.358-1.047,2.412-2.04,3.162c-0.993,0.756-2.262,1.129-3.805,1.129c-1.947,0-3.484-0.599-4.627-1.797
	c-1.14-1.194-1.708-2.878-1.708-5.037c0-2.234,0.575-3.974,1.729-5.205c1.15-1.235,2.646-1.852,4.483-1.852
	c1.776,0,3.227,0.603,4.353,1.811c1.126,1.215,1.69,2.912,1.69,5.109c0,0.13-0.007,0.335-0.014,0.603h-9.914
	c0.086,1.461,0.5,2.576,1.242,3.354c0.743,0.776,1.667,1.167,2.779,1.167c0.821,0,1.529-0.223,2.111-0.654
	C96.263,314.107,96.725,313.413,97.07,312.465"/>
<path fill="#707173" d="M107.146,314.73l0.325,1.988c-0.633,0.134-1.201,0.202-1.705,0.202c-0.814,0-1.448-0.13-1.903-0.391
	c-0.448-0.26-0.767-0.599-0.948-1.02c-0.185-0.421-0.277-1.308-0.277-2.659v-7.645h-1.649v-1.753h1.649v-3.295l2.238-1.349v4.644
	h2.269v1.753h-2.269v7.771c0,0.64,0.044,1.054,0.12,1.235c0.082,0.185,0.212,0.335,0.39,0.441c0.178,0.106,0.438,0.161,0.77,0.161
	C106.406,314.816,106.735,314.785,107.146,314.73"/>
<path fill="#707173" d="M109.359,316.743h2.255v-13.296h-2.255V316.743z M109.359,300.987h2.255v-2.594h-2.255V300.987z"/>
<g>
	<path fill="#707173" d="M115.044,316.746v-13.292h2.029v1.886c0.972-1.458,2.385-2.189,4.229-2.189
		c0.798,0,1.537,0.144,2.208,0.435c0.671,0.283,1.174,0.663,1.509,1.132c0.332,0.466,0.568,1.021,0.702,1.667
		c0.085,0.414,0.123,1.144,0.123,2.19v8.172h-2.252v-8.087c0-0.917-0.089-1.604-0.263-2.06c-0.178-0.455-0.486-0.818-0.935-1.089
		c-0.445-0.27-0.968-0.407-1.571-0.407c-0.958,0-1.786,0.305-2.484,0.914c-0.695,0.609-1.044,1.763-1.044,3.467v7.262H115.044z"/>
	<path fill="#707173" d="M130.751,309.86c0,1.746,0.346,3.016,1.041,3.816c0.691,0.801,1.561,1.204,2.604,1.204
		c1.033,0,1.902-0.4,2.597-1.197c0.705-0.798,1.058-2.043,1.058-3.747c0-1.629-0.366-2.854-1.085-3.683
		c-0.722-0.825-1.595-1.235-2.611-1.235c-1,0-1.852,0.403-2.553,1.218C131.101,307.048,130.751,308.259,130.751,309.86
		 M128.887,317.845l2.19,0.328c0.092,0.675,0.346,1.167,0.763,1.476c0.558,0.417,1.321,0.626,2.293,0.626
		c1.04,0,1.848-0.209,2.413-0.626c0.568-0.418,0.952-1.003,1.153-1.752c0.116-0.459,0.167-1.424,0.161-2.893
		c-0.982,1.16-2.21,1.742-3.679,1.742c-1.827,0-3.241-0.664-4.244-1.981c-1.002-1.317-1.502-2.898-1.502-4.739
		c0-1.27,0.229-2.44,0.691-3.512c0.459-1.074,1.123-1.899,1.995-2.484c0.869-0.585,1.896-0.876,3.07-0.876
		c1.571,0,2.864,0.633,3.884,1.902v-1.604h2.077v11.488c0,2.074-0.212,3.538-0.633,4.404c-0.421,0.862-1.088,1.543-2.002,2.047
		c-0.914,0.499-2.04,0.749-3.375,0.749c-1.584,0-2.868-0.359-3.84-1.071C129.325,320.356,128.853,319.282,128.887,317.845"/>
	<path fill="#707173" d="M150.576,321.862l-0.246-2.115c0.489,0.134,0.917,0.202,1.283,0.202c0.503,0,0.903-0.082,1.205-0.25
		c0.301-0.171,0.544-0.4,0.739-0.701c0.14-0.226,0.37-0.787,0.685-1.677c0.044-0.127,0.109-0.312,0.205-0.551l-5.047-13.319h2.43
		l2.765,7.7c0.359,0.975,0.681,2.002,0.962,3.076c0.26-1.033,0.568-2.043,0.931-3.028l2.841-7.748h2.251l-5.054,13.521
		c-0.544,1.458-0.969,2.465-1.267,3.016c-0.4,0.742-0.855,1.283-1.375,1.632c-0.52,0.346-1.136,0.517-1.855,0.517
		C151.593,322.136,151.11,322.047,150.576,321.862"/>
	<path fill="#707173" d="M164.974,310.097c0,1.704,0.37,2.981,1.112,3.826c0.739,0.846,1.677,1.27,2.806,1.27
		c1.116,0,2.046-0.428,2.789-1.276s1.112-2.149,1.112-3.895c0-1.639-0.369-2.888-1.119-3.737c-0.75-0.845-1.677-1.266-2.782-1.266
		c-1.129,0-2.067,0.417-2.806,1.263C165.343,307.123,164.974,308.396,164.974,310.097 M162.657,310.097
		c0-2.46,0.681-4.284,2.053-5.469c1.143-0.985,2.536-1.475,4.182-1.475c1.824,0,3.316,0.599,4.476,1.793
		c1.16,1.198,1.742,2.854,1.742,4.963c0,1.714-0.257,3.059-0.771,4.038c-0.513,0.979-1.259,1.741-2.241,2.282
		c-0.979,0.544-2.05,0.818-3.207,0.818c-1.862,0-3.371-0.6-4.514-1.79C163.231,314.06,162.657,312.346,162.657,310.097"/>
	<path fill="#707173" d="M186.461,316.746v-1.954c-1.034,1.503-2.44,2.256-4.219,2.256c-0.78,0-1.513-0.151-2.194-0.452
		s-1.184-0.678-1.516-1.133c-0.329-0.455-0.561-1.013-0.695-1.674c-0.092-0.441-0.137-1.143-0.137-2.101v-8.234h2.255v7.372
		c0,1.177,0.044,1.971,0.137,2.375c0.144,0.592,0.441,1.061,0.9,1.396c0.458,0.339,1.027,0.507,1.701,0.507
		c0.678,0,1.311-0.171,1.903-0.517c0.592-0.349,1.013-0.821,1.259-1.417c0.247-0.596,0.37-1.461,0.37-2.598v-7.118h2.251v13.292
		H186.461z"/>
	<path fill="#707173" d="M191.981,316.746v-13.292h2.029v2.013c0.517-0.941,0.996-1.561,1.434-1.861
		c0.438-0.305,0.917-0.455,1.444-0.455c0.76,0,1.53,0.242,2.317,0.725l-0.78,2.095c-0.551-0.325-1.098-0.493-1.649-0.493
		c-0.489,0-0.934,0.151-1.328,0.445c-0.39,0.298-0.671,0.708-0.838,1.235c-0.25,0.798-0.376,1.677-0.376,2.628v6.961H191.981z"/>
	<path fill="#707173" d="M206.765,312.776l2.228-0.349c0.123,0.893,0.472,1.577,1.044,2.053c0.571,0.473,1.372,0.712,2.398,0.712
		c1.034,0,1.801-0.212,2.304-0.633c0.499-0.418,0.749-0.914,0.749-1.485c0-0.507-0.223-0.907-0.664-1.197
		c-0.308-0.199-1.074-0.456-2.303-0.764c-1.653-0.417-2.796-0.78-3.436-1.085s-1.123-0.729-1.451-1.263
		c-0.329-0.537-0.493-1.133-0.493-1.786c0-0.592,0.134-1.137,0.404-1.646c0.274-0.499,0.644-0.92,1.109-1.252
		c0.349-0.261,0.832-0.482,1.434-0.661c0.605-0.178,1.252-0.27,1.947-0.27c1.041,0,1.958,0.15,2.748,0.451
		c0.787,0.301,1.369,0.708,1.745,1.222c0.373,0.51,0.634,1.201,0.773,2.061l-2.2,0.298c-0.103-0.685-0.394-1.215-0.872-1.602
		c-0.477-0.384-1.157-0.575-2.033-0.575c-1.033,0-1.772,0.171-2.214,0.51c-0.441,0.346-0.664,0.746-0.664,1.205
		c0,0.294,0.092,0.551,0.273,0.787c0.188,0.242,0.476,0.441,0.866,0.602c0.226,0.082,0.886,0.274,1.991,0.575
		c1.592,0.425,2.704,0.773,3.334,1.044c0.629,0.271,1.122,0.667,1.481,1.184s0.541,1.16,0.541,1.931c0,0.749-0.22,1.458-0.657,2.118
		c-0.438,0.667-1.071,1.177-1.896,1.543c-0.828,0.359-1.762,0.541-2.803,0.541c-1.728,0-3.045-0.359-3.949-1.074
		C207.594,315.251,207.015,314.187,206.765,312.776"/>
	<path fill="#707173" d="M222.186,308.82h7.423c-0.1-1.119-0.387-1.957-0.852-2.512c-0.719-0.869-1.65-1.304-2.79-1.304
		c-1.036,0-1.905,0.346-2.61,1.037C222.651,306.736,222.258,307.66,222.186,308.82 M229.581,312.465l2.327,0.288
		c-0.362,1.358-1.047,2.412-2.04,3.162c-0.988,0.756-2.258,1.129-3.805,1.129c-1.944,0-3.484-0.599-4.62-1.797
		c-1.144-1.194-1.712-2.878-1.712-5.037c0-2.234,0.575-3.974,1.729-5.205c1.15-1.235,2.646-1.852,4.479-1.852
		c1.78,0,3.231,0.603,4.354,1.811c1.129,1.215,1.694,2.912,1.694,5.109c0,0.13-0.008,0.335-0.014,0.603h-9.914
		c0.082,1.461,0.496,2.576,1.238,3.354c0.742,0.776,1.67,1.167,2.779,1.167c0.824,0,1.533-0.223,2.114-0.654
		C228.776,314.107,229.239,313.413,229.581,312.465"/>
	<path fill="#707173" d="M233.236,316.746l4.855-6.913l-4.489-6.379h2.812l2.043,3.114c0.38,0.593,0.691,1.089,0.924,1.489
		c0.37-0.551,0.705-1.037,1.014-1.465l2.238-3.139h2.696l-4.596,6.256l4.941,7.036h-2.766l-2.728-4.134l-0.725-1.108l-3.491,5.242
		H233.236z"/>
	<path fill="#707173" d="M256.268,316.746v-1.954c-1.034,1.503-2.44,2.256-4.22,2.256c-0.78,0-1.516-0.151-2.193-0.452
		c-0.685-0.301-1.188-0.678-1.517-1.133c-0.332-0.455-0.562-1.013-0.694-1.674c-0.093-0.441-0.137-1.143-0.137-2.101v-8.234h2.252
		v7.372c0,1.177,0.047,1.971,0.137,2.375c0.14,0.592,0.441,1.061,0.903,1.396c0.458,0.339,1.026,0.507,1.7,0.507
		c0.678,0,1.312-0.171,1.903-0.517c0.592-0.349,1.013-0.821,1.259-1.417c0.247-0.596,0.366-1.461,0.366-2.598v-7.118h2.256v13.292
		H256.268z"/>
	<path fill="#707173" d="M270.302,310.073c-0.821,0.335-2.047,0.616-3.683,0.852c-0.927,0.134-1.581,0.284-1.968,0.452
		c-0.383,0.164-0.678,0.41-0.886,0.732c-0.206,0.318-0.312,0.674-0.312,1.067c0,0.603,0.226,1.103,0.681,1.503
		s1.119,0.602,1.995,0.602c0.869,0,1.64-0.191,2.317-0.571c0.677-0.38,1.17-0.9,1.488-1.557c0.243-0.51,0.366-1.263,0.366-2.252
		V310.073z M270.486,315.104c-0.835,0.712-1.636,1.212-2.405,1.506c-0.777,0.291-1.602,0.438-2.488,0.438
		c-1.458,0-2.58-0.359-3.367-1.075c-0.784-0.712-1.178-1.622-1.178-2.73c0-0.654,0.147-1.246,0.445-1.786
		c0.294-0.538,0.685-0.969,1.163-1.298c0.482-0.325,1.021-0.567,1.622-0.739c0.445-0.112,1.109-0.226,2.002-0.335
		c1.821-0.216,3.159-0.476,4.021-0.776c0.007-0.305,0.01-0.504,0.01-0.586c0-0.92-0.215-1.567-0.64-1.943
		c-0.575-0.507-1.427-0.764-2.563-0.764c-1.061,0-1.844,0.186-2.348,0.559c-0.506,0.373-0.876,1.029-1.122,1.975l-2.2-0.305
		c0.198-0.941,0.53-1.701,0.988-2.283c0.459-0.581,1.119-1.026,1.988-1.338c0.866-0.312,1.876-0.472,3.016-0.472
		s2.06,0.133,2.769,0.4c0.708,0.27,1.229,0.605,1.563,1.009c0.336,0.404,0.568,0.914,0.705,1.533
		c0.072,0.384,0.106,1.078,0.106,2.077v3.005c0,2.095,0.051,3.419,0.147,3.977c0.096,0.551,0.283,1.085,0.567,1.595h-2.351
		C270.706,316.277,270.552,315.733,270.486,315.104"/>
</g>
<rect x="276.017" y="298.394" fill="#707173" width="2.252" height="18.35"/>
<g>
	<path fill="#707173" d="M288.884,316.746v-18.35h2.252v6.581c1.055-1.215,2.382-1.827,3.983-1.827c0.985,0,1.838,0.194,2.563,0.581
		c0.726,0.391,1.249,0.928,1.561,1.608c0.312,0.685,0.469,1.681,0.469,2.981v8.425h-2.252v-8.425c0-1.126-0.246-1.944-0.732-2.461
		c-0.492-0.51-1.181-0.767-2.07-0.767c-0.671,0-1.297,0.171-1.886,0.517c-0.585,0.35-1.006,0.818-1.259,1.41
		c-0.25,0.592-0.377,1.41-0.377,2.453v7.272H288.884z"/>
	<path fill="#707173" d="M304.845,308.82h7.42c-0.1-1.119-0.38-1.957-0.849-2.512c-0.716-0.869-1.649-1.304-2.793-1.304
		c-1.033,0-1.906,0.346-2.607,1.037C305.311,306.736,304.917,307.66,304.845,308.82 M312.24,312.465l2.331,0.288
		c-0.366,1.358-1.047,2.412-2.043,3.162c-0.992,0.756-2.259,1.129-3.806,1.129c-1.944,0-3.483-0.599-4.627-1.797
		c-1.133-1.194-1.704-2.878-1.704-5.037c0-2.234,0.575-3.974,1.729-5.205c1.149-1.235,2.645-1.852,4.479-1.852
		c1.776,0,3.227,0.603,4.356,1.811c1.126,1.215,1.69,2.912,1.69,5.109c0,0.13-0.004,0.335-0.014,0.603h-9.914
		c0.082,1.461,0.496,2.576,1.239,3.354c0.742,0.776,1.67,1.167,2.778,1.167c0.828,0,1.533-0.223,2.115-0.654
		C311.437,314.107,311.898,313.413,312.24,312.465"/>
	<path fill="#707173" d="M325.885,310.073c-0.817,0.335-2.046,0.616-3.683,0.852c-0.924,0.134-1.58,0.284-1.964,0.452
		c-0.384,0.164-0.678,0.41-0.887,0.732c-0.208,0.318-0.312,0.674-0.312,1.067c0,0.603,0.227,1.103,0.678,1.503
		c0.455,0.4,1.123,0.602,1.999,0.602c0.869,0,1.64-0.191,2.316-0.571c0.675-0.38,1.171-0.9,1.489-1.557
		c0.242-0.51,0.362-1.263,0.362-2.252V310.073z M326.073,315.104c-0.835,0.712-1.636,1.212-2.409,1.506
		c-0.773,0.291-1.602,0.438-2.484,0.438c-1.462,0-2.581-0.359-3.368-1.075c-0.783-0.712-1.177-1.622-1.177-2.73
		c0-0.654,0.147-1.246,0.444-1.786c0.295-0.538,0.685-0.969,1.164-1.298c0.479-0.325,1.02-0.567,1.622-0.739
		c0.441-0.112,1.108-0.226,2.002-0.335c1.817-0.216,3.159-0.476,4.018-0.776c0.011-0.305,0.014-0.504,0.014-0.586
		c0-0.92-0.216-1.567-0.64-1.943c-0.578-0.507-1.431-0.764-2.563-0.764c-1.064,0-1.845,0.186-2.348,0.559
		c-0.507,0.373-0.88,1.029-1.122,1.975l-2.201-0.305c0.199-0.941,0.527-1.701,0.989-2.283c0.459-0.581,1.119-1.026,1.988-1.338
		c0.866-0.312,1.872-0.472,3.015-0.472c1.141,0,2.061,0.133,2.77,0.4c0.708,0.27,1.229,0.605,1.563,1.009
		c0.335,0.404,0.564,0.914,0.701,1.533c0.075,0.384,0.11,1.078,0.11,2.077v3.005c0,2.095,0.048,3.419,0.144,3.977
		c0.099,0.551,0.287,1.085,0.571,1.595h-2.352C326.289,316.277,326.138,315.733,326.073,315.104"/>
</g>
<rect x="331.606" y="298.394" fill="#707173" width="2.252" height="18.35"/>
<path fill="#707173" d="M342.271,314.73l0.325,1.988c-0.637,0.134-1.201,0.202-1.704,0.202c-0.818,0-1.451-0.13-1.903-0.391
	c-0.448-0.26-0.767-0.599-0.948-1.02c-0.188-0.421-0.276-1.308-0.276-2.659v-7.645h-1.653v-1.753h1.653v-3.295l2.241-1.349v4.644
	h2.266v1.753h-2.266v7.771c0,0.64,0.037,1.054,0.116,1.235c0.079,0.185,0.209,0.335,0.391,0.441c0.178,0.106,0.438,0.161,0.77,0.161
	C341.527,314.816,341.859,314.785,342.271,314.73"/>
<path fill="#707173" d="M344.471,316.746v-18.35h2.255v6.581c1.051-1.215,2.379-1.827,3.98-1.827c0.985,0,1.841,0.194,2.566,0.581
	c0.723,0.391,1.246,0.928,1.558,1.608c0.312,0.685,0.469,1.681,0.469,2.981v8.425h-2.252v-8.425c0-1.126-0.246-1.944-0.732-2.461
	c-0.489-0.51-1.181-0.767-2.07-0.767c-0.671,0-1.297,0.171-1.886,0.517c-0.585,0.35-1.006,0.818-1.26,1.41
	c-0.246,0.592-0.373,1.41-0.373,2.453v7.272H344.471z"/>
<path fill="#707173" d="M365.85,316.746v-13.292h2.029v1.886c0.975-1.458,2.385-2.189,4.229-2.189c0.805,0,1.54,0.144,2.207,0.435
	c0.675,0.283,1.178,0.663,1.513,1.132c0.332,0.466,0.564,1.021,0.698,1.667c0.086,0.414,0.123,1.144,0.123,2.19v8.172h-2.248v-8.087
	c0-0.917-0.089-1.604-0.264-2.06s-0.486-0.818-0.935-1.089c-0.448-0.27-0.968-0.407-1.57-0.407c-0.962,0-1.786,0.305-2.481,0.914
	c-0.698,0.609-1.047,1.763-1.047,3.467v7.262H365.85z"/>
<path fill="#707173" d="M381.807,308.82h7.423c-0.1-1.119-0.383-1.957-0.849-2.512c-0.719-0.869-1.649-1.304-2.792-1.304
	c-1.034,0-1.906,0.346-2.611,1.037C382.272,306.736,381.882,307.66,381.807,308.82 M389.206,312.465l2.33,0.288
	c-0.369,1.358-1.047,2.412-2.043,3.162c-0.992,0.756-2.262,1.129-3.806,1.129c-1.947,0-3.483-0.599-4.627-1.797
	c-1.136-1.194-1.707-2.878-1.707-5.037c0-2.234,0.574-3.974,1.728-5.205c1.153-1.235,2.646-1.852,4.483-1.852
	c1.776,0,3.228,0.603,4.356,1.811c1.122,1.215,1.688,2.912,1.688,5.109c0,0.13-0.004,0.335-0.014,0.603h-9.914
	c0.085,1.461,0.499,2.576,1.242,3.354c0.742,0.776,1.666,1.167,2.778,1.167c0.825,0,1.53-0.223,2.111-0.654
	C388.398,314.107,388.86,313.413,389.206,312.465"/>
<path fill="#707173" d="M396.067,308.82h7.423c-0.103-1.119-0.387-1.957-0.853-2.512c-0.719-0.869-1.649-1.304-2.793-1.304
	c-1.033,0-1.905,0.346-2.61,1.037C396.529,306.736,396.139,307.66,396.067,308.82 M403.463,312.465l2.33,0.288
	c-0.369,1.358-1.047,2.412-2.043,3.162c-0.992,0.756-2.262,1.129-3.806,1.129c-1.943,0-3.483-0.599-4.623-1.797
	c-1.14-1.194-1.711-2.878-1.711-5.037c0-2.234,0.574-3.974,1.728-5.205c1.153-1.235,2.646-1.852,4.483-1.852
	c1.776,0,3.228,0.603,4.356,1.811c1.122,1.215,1.688,2.912,1.688,5.109c0,0.13-0.004,0.335-0.014,0.603h-9.911
	c0.082,1.461,0.496,2.576,1.239,3.354c0.742,0.776,1.666,1.167,2.778,1.167c0.825,0,1.53-0.223,2.115-0.654
	C402.655,314.107,403.117,313.413,403.463,312.465"/>
<path fill="#707173" d="M410.118,310.11c0,1.704,0.363,2.975,1.082,3.816c0.715,0.845,1.561,1.266,2.539,1.266
	c0.985,0,1.82-0.403,2.509-1.204c0.688-0.808,1.037-2.036,1.037-3.692c0-1.817-0.356-3.152-1.058-4.005
	c-0.695-0.849-1.561-1.276-2.591-1.276c-0.999,0-1.834,0.411-2.509,1.229C410.458,307.062,410.118,308.352,410.118,310.11
	 M417.243,316.746v-1.68c-0.845,1.32-2.08,1.981-3.716,1.981c-1.062,0-2.033-0.295-2.923-0.877c-0.887-0.585-1.577-1.402-2.063-2.45
	c-0.493-1.047-0.732-2.251-0.732-3.61c0-1.327,0.219-2.528,0.661-3.613c0.441-1.078,1.104-1.906,1.991-2.484
	c0.883-0.575,1.872-0.862,2.964-0.862c0.804,0,1.513,0.171,2.142,0.51c0.627,0.335,1.137,0.776,1.526,1.317v-6.581h2.238v18.35
	H417.243z"/>
<path fill="#707173" d="M421.974,312.776l2.23-0.349c0.123,0.893,0.473,1.577,1.044,2.053c0.571,0.473,1.369,0.712,2.396,0.712
	c1.033,0,1.8-0.212,2.304-0.633c0.499-0.418,0.749-0.914,0.749-1.485c0-0.507-0.223-0.907-0.66-1.197
	c-0.312-0.199-1.078-0.456-2.304-0.764c-1.656-0.417-2.799-0.78-3.439-1.085c-0.636-0.305-1.122-0.729-1.45-1.263
	c-0.329-0.537-0.493-1.133-0.493-1.786c0-0.592,0.137-1.137,0.407-1.646c0.271-0.499,0.64-0.92,1.105-1.252
	c0.353-0.261,0.831-0.482,1.434-0.661c0.605-0.178,1.256-0.27,1.944-0.27c1.044,0,1.961,0.15,2.751,0.451
	c0.791,0.301,1.372,0.708,1.745,1.222c0.377,0.51,0.634,1.201,0.773,2.061l-2.2,0.298c-0.1-0.685-0.391-1.215-0.869-1.602
	c-0.482-0.384-1.156-0.575-2.033-0.575c-1.037,0-1.775,0.171-2.217,0.51c-0.441,0.346-0.661,0.746-0.661,1.205
	c0,0.294,0.089,0.551,0.274,0.787c0.181,0.242,0.472,0.441,0.865,0.602c0.223,0.082,0.887,0.274,1.988,0.575
	c1.592,0.425,2.707,0.773,3.333,1.044c0.63,0.271,1.126,0.667,1.485,1.184s0.537,1.16,0.537,1.931c0,0.749-0.219,1.458-0.656,2.118
	c-0.438,0.667-1.071,1.177-1.896,1.543c-0.824,0.359-1.762,0.541-2.803,0.541c-1.731,0-3.046-0.359-3.949-1.074
	C422.802,315.251,422.223,314.187,421.974,312.776"/>
<path fill="#009036" d="M180.732,178.179c0,8.914-2.31,16.916-6.93,24.017c-4.562,7.107-11.255,12.662-20.102,16.684
	c-8.843,4.018-19.329,6.026-31.45,6.026c-14.538,0-26.529-2.741-35.978-8.237c-6.701-3.953-12.159-9.213-16.379-15.776
	c-4.154-6.633-6.231-13.062-6.231-19.295c0-3.617,1.242-6.696,3.72-9.243c2.543-2.614,5.756-3.918,9.647-3.918
	c3.145,0,5.793,1.006,7.936,3.012c2.21,2.009,4.086,4.996,5.633,8.945c1.872,4.688,3.881,8.61,6.023,11.755
	c2.214,3.152,5.291,5.764,9.247,7.837c3.949,2.013,9.141,3.016,15.574,3.016c8.846,0,16.012-2.044,21.505-6.13
	c5.558-4.15,8.336-9.308,8.343-15.472c0-4.894-1.509-8.843-4.521-11.861c-2.954-3.08-6.803-5.424-11.56-7.036
	c-4.692-1.604-10.985-3.315-18.891-5.123c-10.585-2.478-19.462-5.355-26.628-8.641c-7.104-3.347-12.765-7.867-16.984-13.565
	c-4.155-5.763-6.229-12.892-6.229-21.406c0-8.104,2.211-15.308,6.632-21.604C77.53,85.865,83.929,81.043,92.3,77.689
	c8.378-3.416,18.223-5.123,29.544-5.123c9.048,0,16.848,1.14,23.418,3.419c6.632,2.21,12.121,5.191,16.481,8.941
	c4.35,3.687,7.536,7.573,9.544,11.656c2.009,4.09,3.015,8.073,3.015,11.961c0,3.549-1.276,6.766-3.819,9.646
	c-2.481,2.81-5.596,4.22-9.346,4.22c-3.416,0-6.03-0.838-7.84-2.515c-1.742-1.739-3.648-4.552-5.725-8.443
	c-2.68-5.554-5.896-9.876-9.647-12.959c-3.754-3.148-9.781-4.723-18.09-4.727c-7.704,0-13.932,1.711-18.688,5.127
	c-4.692,3.35-7.036,7.405-7.036,12.162c0,2.946,0.804,5.492,2.413,7.635c1.608,2.146,3.823,3.987,6.636,5.527
	c2.81,1.539,5.66,2.747,8.538,3.617c2.881,0.876,7.635,2.142,14.271,3.818c8.306,1.944,15.807,4.09,22.508,6.431
	c6.766,2.348,12.495,5.191,17.186,8.542c4.75,3.351,8.439,7.604,11.054,12.765C179.391,164.482,180.729,170.745,180.732,178.179"/>
<path fill="none" stroke="#009036" stroke-width="1.356" stroke-miterlimit="3.864" d="M180.732,178.179
	c0,8.914-2.31,16.916-6.93,24.017c-4.562,7.107-11.255,12.662-20.102,16.684c-8.843,4.018-19.329,6.026-31.45,6.026
	c-14.538,0-26.529-2.741-35.978-8.237c-6.701-3.953-12.159-9.213-16.379-15.776c-4.154-6.633-6.231-13.062-6.231-19.295
	c0-3.617,1.242-6.696,3.72-9.243c2.543-2.614,5.756-3.918,9.647-3.918c3.145,0,5.793,1.006,7.936,3.012
	c2.21,2.009,4.086,4.996,5.633,8.945c1.872,4.688,3.881,8.61,6.023,11.755c2.214,3.152,5.291,5.764,9.247,7.837
	c3.949,2.013,9.141,3.016,15.574,3.016c8.846,0,16.012-2.044,21.505-6.13c5.558-4.15,8.336-9.308,8.343-15.472
	c0-4.894-1.509-8.843-4.521-11.861c-2.954-3.08-6.803-5.424-11.56-7.036c-4.692-1.604-10.985-3.315-18.891-5.123
	c-10.585-2.478-19.462-5.355-26.628-8.641c-7.104-3.347-12.765-7.867-16.984-13.565c-4.155-5.763-6.229-12.892-6.229-21.406
	c0-8.104,2.211-15.308,6.632-21.604C77.53,85.865,83.929,81.043,92.3,77.689c8.378-3.416,18.223-5.123,29.544-5.123
	c9.048,0,16.848,1.14,23.418,3.419c6.632,2.21,12.121,5.191,16.481,8.941c4.35,3.687,7.536,7.573,9.544,11.656
	c2.009,4.09,3.015,8.073,3.015,11.961c0,3.549-1.276,6.766-3.819,9.646c-2.481,2.81-5.596,4.22-9.346,4.22
	c-3.416,0-6.03-0.838-7.84-2.515c-1.742-1.739-3.648-4.552-5.725-8.443c-2.68-5.554-5.896-9.876-9.647-12.959
	c-3.754-3.148-9.781-4.723-18.09-4.727c-7.704,0-13.932,1.711-18.688,5.127c-4.692,3.35-7.036,7.405-7.036,12.162
	c0,2.946,0.804,5.492,2.413,7.635c1.608,2.146,3.823,3.987,6.636,5.527c2.81,1.539,5.66,2.747,8.538,3.617
	c2.881,0.876,7.635,2.142,14.271,3.818c8.306,1.944,15.807,4.09,22.508,6.431c6.766,2.348,12.495,5.191,17.186,8.542
	c4.75,3.351,8.439,7.604,11.054,12.765C179.391,164.482,180.729,170.745,180.732,178.179z"/>
<path fill="#009036" d="M186.492,88.534c-1.033-14.729,8.716-27.412,21.779-28.322c13.052-0.914,24.472,10.284,25.505,25.017
	l1.246,128.369c0.742,10.592-5.267,19.637-13.419,20.208c-8.151,0.572-15.358-7.553-16.098-18.144L186.492,88.534z"/>
<path fill="none" stroke="#009036" stroke-width="1.284" stroke-miterlimit="3.864" d="M186.492,88.534
	c-1.033-14.729,8.716-27.412,21.779-28.322c13.052-0.914,24.472,10.284,25.505,25.017l1.246,128.369
	c0.742,10.592-5.267,19.637-13.419,20.208c-8.151,0.572-15.358-7.553-16.098-18.144L186.492,88.534z"/>
<path fill="#006576" d="M249.618,84.366c0.947-13.583,11.478-23.914,23.521-23.072c12.043,0.838,21.036,12.535,20.081,26.117
	l-15.334,117.392c-0.685,9.768-7.334,17.259-14.846,16.734c-7.519-0.53-13.056-8.87-12.378-18.637L249.618,84.366z"/>
<path fill="none" stroke="#006576" stroke-width="1.184" stroke-miterlimit="3.864" d="M249.618,84.366
	c0.947-13.583,11.478-23.914,23.521-23.072c12.043,0.838,21.036,12.535,20.081,26.117l-15.334,117.392
	c-0.685,9.768-7.334,17.259-14.846,16.734c-7.519-0.53-13.056-8.87-12.378-18.637L249.618,84.366z"/>
<path fill="#009036" d="M180.216,31.821c-1.937-15.79,5.568-29.697,16.762-31.069c11.194-1.376,21.84,10.304,23.784,26.094
	c1.938,15.786-5.567,29.694-16.765,31.066C192.803,59.292,182.153,47.608,180.216,31.821"/>
<path fill="none" stroke="#009036" stroke-width="1.284" stroke-miterlimit="3.864" d="M180.216,31.821
	c-1.937-15.79,5.568-29.697,16.762-31.069c11.194-1.376,21.84,10.304,23.784,26.094c1.938,15.786-5.567,29.694-16.765,31.066
	C192.803,59.292,182.153,47.608,180.216,31.821z"/>
<path fill="#006576" d="M256.034,29.146c0.277-15.903,9.641-28.63,20.924-28.432c11.276,0.198,20.194,13.247,19.917,29.146
	c-0.28,15.903-9.644,28.634-20.92,28.432C264.679,58.097,255.757,45.048,256.034,29.146"/>
<path fill="none" stroke="#006576" stroke-width="1.284" stroke-miterlimit="3.864" d="M256.034,29.146
	c0.277-15.903,9.641-28.63,20.924-28.432c11.276,0.198,20.194,13.247,19.917,29.146c-0.28,15.903-9.644,28.634-20.92,28.432
	C264.679,58.097,255.757,45.048,256.034,29.146z"/>
<path fill="#006576" d="M421.008,178.179c0,8.914-2.31,16.916-6.933,24.017c-4.559,7.107-11.26,12.662-20.099,16.684
	c-8.847,4.018-19.329,6.026-31.454,6.026c-14.533,0-26.528-2.741-35.974-8.237c-6.704-3.953-12.159-9.213-16.379-15.776
	c-4.157-6.633-6.231-13.062-6.231-19.295c0-3.617,1.242-6.696,3.724-9.243c2.539-2.614,5.756-3.918,9.64-3.918
	c3.148,0,5.798,1.006,7.943,3.012c2.207,2.009,4.082,4.996,5.626,8.945c1.872,4.688,3.884,8.61,6.03,11.755
	c2.21,3.152,5.287,5.764,9.243,7.837c3.949,2.013,9.141,3.016,15.574,3.016c8.843,0,16.013-2.044,21.509-6.13
	c5.554-4.15,8.333-9.308,8.336-15.472c0-4.89-1.506-8.843-4.521-11.861c-2.95-3.08-6.8-5.424-11.554-7.032
	c-4.695-1.608-10.988-3.319-18.894-5.127c-10.589-2.478-19.466-5.355-26.632-8.641c-7.101-3.347-12.761-7.867-16.984-13.565
	c-4.15-5.763-6.229-12.892-6.229-21.406c0-8.104,2.208-15.308,6.636-21.604c4.418-6.296,10.814-11.118,19.192-14.469
	c8.37-3.419,18.22-5.126,29.543-5.126c9.049,0,16.848,1.14,23.415,3.419c6.629,2.21,12.125,5.191,16.478,8.941
	c4.354,3.687,7.536,7.573,9.548,11.656c2.009,4.09,3.016,8.073,3.016,11.961c0,3.552-1.276,6.766-3.819,9.646
	c-2.481,2.81-5.599,4.22-9.343,4.22c-3.422,0-6.033-0.838-7.844-2.515c-1.738-1.739-3.647-4.552-5.726-8.443
	c-2.683-5.554-5.896-9.876-9.644-12.959c-3.754-3.148-9.784-4.723-18.093-4.727c-7.703,0-13.936,1.711-18.688,5.127
	c-4.692,3.35-7.036,7.405-7.036,12.162c0,2.946,0.804,5.492,2.412,7.635c1.609,2.146,3.819,3.987,6.636,5.527
	c2.813,1.539,5.653,2.747,8.539,3.617c2.878,0.876,7.635,2.142,14.271,3.818c8.309,1.944,15.807,4.09,22.511,6.431
	c6.759,2.348,12.491,5.191,17.183,8.542c4.754,3.351,8.439,7.604,11.051,12.765C419.667,164.482,421.008,170.745,421.008,178.179"/>
<path fill="none" stroke="#006576" stroke-width="1.356" stroke-miterlimit="3.864" d="M421.008,178.179
	c0,8.914-2.31,16.916-6.933,24.017c-4.559,7.107-11.26,12.662-20.099,16.684c-8.847,4.018-19.329,6.026-31.454,6.026
	c-14.533,0-26.528-2.741-35.974-8.237c-6.704-3.953-12.159-9.213-16.379-15.776c-4.157-6.633-6.231-13.062-6.231-19.295
	c0-3.617,1.242-6.696,3.724-9.243c2.539-2.614,5.756-3.918,9.64-3.918c3.148,0,5.798,1.006,7.943,3.012
	c2.207,2.009,4.082,4.996,5.626,8.945c1.872,4.688,3.884,8.61,6.03,11.755c2.21,3.152,5.287,5.764,9.243,7.837
	c3.949,2.013,9.141,3.016,15.574,3.016c8.843,0,16.013-2.044,21.509-6.13c5.554-4.15,8.333-9.308,8.336-15.472
	c0-4.89-1.506-8.843-4.521-11.861c-2.95-3.08-6.8-5.424-11.554-7.032c-4.695-1.608-10.988-3.319-18.894-5.127
	c-10.589-2.478-19.466-5.355-26.632-8.641c-7.101-3.347-12.761-7.867-16.984-13.565c-4.15-5.763-6.229-12.892-6.229-21.406
	c0-8.104,2.208-15.308,6.636-21.604c4.418-6.296,10.814-11.118,19.192-14.469c8.37-3.419,18.22-5.126,29.543-5.126
	c9.049,0,16.848,1.14,23.415,3.419c6.629,2.21,12.125,5.191,16.478,8.941c4.354,3.687,7.536,7.573,9.548,11.656
	c2.009,4.09,3.016,8.073,3.016,11.961c0,3.552-1.276,6.766-3.819,9.646c-2.481,2.81-5.599,4.22-9.343,4.22
	c-3.422,0-6.033-0.838-7.844-2.515c-1.738-1.739-3.647-4.552-5.726-8.443c-2.683-5.554-5.896-9.876-9.644-12.959
	c-3.754-3.148-9.784-4.723-18.093-4.727c-7.703,0-13.936,1.711-18.688,5.127c-4.692,3.35-7.036,7.405-7.036,12.162
	c0,2.946,0.804,5.492,2.412,7.635c1.609,2.146,3.819,3.987,6.636,5.527c2.813,1.539,5.653,2.747,8.539,3.617
	c2.878,0.876,7.635,2.142,14.271,3.818c8.309,1.944,15.807,4.09,22.511,6.431c6.759,2.348,12.491,5.191,17.183,8.542
	c4.754,3.351,8.439,7.604,11.051,12.765C419.667,164.482,421.008,170.745,421.008,178.179z"/>
<path fill="#006576" d="M229.017,101.378c-7.676-0.675-9.104,0.105-16.776-0.565c-3.607-0.314-7.019,3.693-7.33,7.297
	c-0.893,10.178,8.925,17.035,19.11,17.929c5.324,0.465,8.145,0.712,13.469,1.181c23.032,2.012,48.147-9.049,50.163-32.076
	c0.603-6.893-6.406-11.611-13.296-12.214c-7.203-0.63-10.95,4.25-16.258,8.997C249.204,99.827,240.922,102.418,229.017,101.378"/>
<path fill="#009036" d="M259.569,87.911c7.707,0,6.608-2.464,14.312-2.464c3.617,0,7.251,4.018,7.251,7.635
	c0,10.223-10.38,16.194-20.598,16.194h-13.528c-23.113,0-47.171-13.207-47.171-36.32c0-6.919,7.392-11.009,14.308-11.009
	c7.234,0,10.533,5.188,15.41,10.376C237.732,80.975,247.623,87.911,259.569,87.911"/>
<path fill="#006576" d="M216.149,101.121c1.844-0.359,1.693-3.053,3.545-3.412c1.79-0.346,2.587,1.852,2.937,3.638
	c0.369,1.91,0.917,5.818-0.993,6.188C218.12,108.219,214.479,101.449,216.149,101.121"/>
<path fill="#009036" d="M271.876,85.231c-1.779-0.612-2.272-4.182-4.052-4.798c-1.729-0.592-2.823,1.476-3.415,3.196
	c-0.637,1.838-1.722,5.633,0.116,6.263C267.916,91.06,273.484,85.786,271.876,85.231"/>
</svg>
